<mxfile host="Electron" modified="2023-06-07T04:26:07.461Z" agent="Mozilla/5.0 (Windows NT 10.0; Win64; x64) AppleWebKit/537.36 (KHTML, like Gecko) draw.io/21.2.8 Chrome/112.0.5615.165 Electron/24.2.0 Safari/537.36" etag="g01qRU9HYrW8eSvPMY-H" version="21.2.8" type="device">
  <diagram name="Page-1" id="HVLd08_h-fR_Knsx_RwF">
    <mxGraphModel dx="1593" dy="929" grid="1" gridSize="10" guides="1" tooltips="1" connect="1" arrows="1" fold="1" page="1" pageScale="1" pageWidth="850" pageHeight="1100" math="0" shadow="0">
      <root>
        <mxCell id="0" />
        <mxCell id="1" parent="0" />
        <mxCell id="hNyJn2xI1DlJILf2yhCy-1" value="API Gateway" style="rounded=1;whiteSpace=wrap;html=1;rotation=90;" vertex="1" parent="1">
          <mxGeometry x="-55" y="270" width="540" height="60" as="geometry" />
        </mxCell>
        <mxCell id="hNyJn2xI1DlJILf2yhCy-2" value="User Management Service  " style="rounded=1;whiteSpace=wrap;html=1;" vertex="1" parent="1">
          <mxGeometry x="345" y="100" width="120" height="60" as="geometry" />
        </mxCell>
        <mxCell id="hNyJn2xI1DlJILf2yhCy-3" value="Work Order&lt;br&gt;Service  " style="rounded=1;whiteSpace=wrap;html=1;" vertex="1" parent="1">
          <mxGeometry x="345" y="200" width="120" height="60" as="geometry" />
        </mxCell>
        <mxCell id="hNyJn2xI1DlJILf2yhCy-4" value="Property Management&lt;br&gt;Service  " style="rounded=1;whiteSpace=wrap;html=1;" vertex="1" parent="1">
          <mxGeometry x="330" y="330" width="150" height="60" as="geometry" />
        </mxCell>
        <mxCell id="hNyJn2xI1DlJILf2yhCy-5" value="Transaction&lt;br&gt;Service  " style="rounded=1;whiteSpace=wrap;html=1;" vertex="1" parent="1">
          <mxGeometry x="345" y="450" width="120" height="60" as="geometry" />
        </mxCell>
        <mxCell id="hNyJn2xI1DlJILf2yhCy-6" value="Raditional&lt;br&gt;Databases" style="rounded=1;whiteSpace=wrap;html=1;" vertex="1" parent="1">
          <mxGeometry x="585" y="130" width="120" height="60" as="geometry" />
        </mxCell>
        <mxCell id="hNyJn2xI1DlJILf2yhCy-15" value="Logging&lt;br&gt;Database" style="rounded=1;whiteSpace=wrap;html=1;" vertex="1" parent="1">
          <mxGeometry x="595" y="323" width="120" height="60" as="geometry" />
        </mxCell>
        <mxCell id="hNyJn2xI1DlJILf2yhCy-16" value="" style="shape=flexArrow;endArrow=classic;html=1;rounded=0;width=11;endSize=7.68;" edge="1" parent="1">
          <mxGeometry width="50" height="50" relative="1" as="geometry">
            <mxPoint x="56" y="120" as="sourcePoint" />
            <mxPoint x="126" y="120" as="targetPoint" />
          </mxGeometry>
        </mxCell>
        <mxCell id="hNyJn2xI1DlJILf2yhCy-17" value="" style="shape=flexArrow;endArrow=classic;html=1;rounded=0;width=11;endSize=7.68;" edge="1" parent="1">
          <mxGeometry width="50" height="50" relative="1" as="geometry">
            <mxPoint x="56" y="199" as="sourcePoint" />
            <mxPoint x="126" y="199" as="targetPoint" />
          </mxGeometry>
        </mxCell>
        <mxCell id="hNyJn2xI1DlJILf2yhCy-18" value="" style="shape=flexArrow;endArrow=classic;html=1;rounded=0;width=11;endSize=7.68;" edge="1" parent="1">
          <mxGeometry width="50" height="50" relative="1" as="geometry">
            <mxPoint x="56" y="479.5" as="sourcePoint" />
            <mxPoint x="126" y="479.5" as="targetPoint" />
          </mxGeometry>
        </mxCell>
        <mxCell id="hNyJn2xI1DlJILf2yhCy-19" value="" style="shape=flexArrow;endArrow=classic;html=1;rounded=0;width=11;endSize=7.68;" edge="1" parent="1">
          <mxGeometry width="50" height="50" relative="1" as="geometry">
            <mxPoint x="56" y="400" as="sourcePoint" />
            <mxPoint x="126" y="400" as="targetPoint" />
          </mxGeometry>
        </mxCell>
        <mxCell id="hNyJn2xI1DlJILf2yhCy-20" value="" style="shape=flexArrow;endArrow=classic;html=1;rounded=0;width=28;endSize=15;endWidth=27;" edge="1" parent="1">
          <mxGeometry width="50" height="50" relative="1" as="geometry">
            <mxPoint x="26" y="300" as="sourcePoint" />
            <mxPoint x="176" y="300" as="targetPoint" />
          </mxGeometry>
        </mxCell>
        <mxCell id="hNyJn2xI1DlJILf2yhCy-21" value="Request" style="edgeLabel;html=1;align=center;verticalAlign=middle;resizable=0;points=[];" vertex="1" connectable="0" parent="hNyJn2xI1DlJILf2yhCy-20">
          <mxGeometry x="-0.2533" relative="1" as="geometry">
            <mxPoint as="offset" />
          </mxGeometry>
        </mxCell>
        <mxCell id="hNyJn2xI1DlJILf2yhCy-22" value="" style="endArrow=none;html=1;rounded=0;exitX=0.5;exitY=0;exitDx=0;exitDy=0;" edge="1" parent="1" source="hNyJn2xI1DlJILf2yhCy-1">
          <mxGeometry width="50" height="50" relative="1" as="geometry">
            <mxPoint x="295" y="180" as="sourcePoint" />
            <mxPoint x="345" y="130" as="targetPoint" />
          </mxGeometry>
        </mxCell>
        <mxCell id="hNyJn2xI1DlJILf2yhCy-24" value="" style="endArrow=none;html=1;rounded=0;exitX=0.5;exitY=0;exitDx=0;exitDy=0;entryX=0;entryY=0.5;entryDx=0;entryDy=0;" edge="1" parent="1" source="hNyJn2xI1DlJILf2yhCy-1" target="hNyJn2xI1DlJILf2yhCy-3">
          <mxGeometry width="50" height="50" relative="1" as="geometry">
            <mxPoint x="295" y="180" as="sourcePoint" />
            <mxPoint x="345" y="130" as="targetPoint" />
          </mxGeometry>
        </mxCell>
        <mxCell id="hNyJn2xI1DlJILf2yhCy-25" value="" style="endArrow=none;html=1;rounded=0;exitX=0.5;exitY=0;exitDx=0;exitDy=0;entryX=0;entryY=0.5;entryDx=0;entryDy=0;" edge="1" parent="1" source="hNyJn2xI1DlJILf2yhCy-1" target="hNyJn2xI1DlJILf2yhCy-4">
          <mxGeometry width="50" height="50" relative="1" as="geometry">
            <mxPoint x="295" y="180" as="sourcePoint" />
            <mxPoint x="345" y="130" as="targetPoint" />
          </mxGeometry>
        </mxCell>
        <mxCell id="hNyJn2xI1DlJILf2yhCy-26" value="" style="endArrow=none;html=1;rounded=0;exitX=0.5;exitY=0;exitDx=0;exitDy=0;entryX=0;entryY=0.5;entryDx=0;entryDy=0;" edge="1" parent="1" source="hNyJn2xI1DlJILf2yhCy-1" target="hNyJn2xI1DlJILf2yhCy-5">
          <mxGeometry width="50" height="50" relative="1" as="geometry">
            <mxPoint x="295" y="180" as="sourcePoint" />
            <mxPoint x="345" y="130" as="targetPoint" />
          </mxGeometry>
        </mxCell>
        <mxCell id="hNyJn2xI1DlJILf2yhCy-27" value="" style="endArrow=none;html=1;rounded=0;exitX=1;exitY=0.5;exitDx=0;exitDy=0;entryX=0;entryY=0.5;entryDx=0;entryDy=0;" edge="1" parent="1" source="hNyJn2xI1DlJILf2yhCy-5" target="hNyJn2xI1DlJILf2yhCy-15">
          <mxGeometry width="50" height="50" relative="1" as="geometry">
            <mxPoint x="545" y="500" as="sourcePoint" />
            <mxPoint x="645" y="690" as="targetPoint" />
          </mxGeometry>
        </mxCell>
        <mxCell id="hNyJn2xI1DlJILf2yhCy-28" value="" style="endArrow=none;html=1;rounded=0;exitX=1;exitY=0.5;exitDx=0;exitDy=0;entryX=0;entryY=0.5;entryDx=0;entryDy=0;" edge="1" parent="1" source="hNyJn2xI1DlJILf2yhCy-5" target="hNyJn2xI1DlJILf2yhCy-6">
          <mxGeometry width="50" height="50" relative="1" as="geometry">
            <mxPoint x="545" y="500" as="sourcePoint" />
            <mxPoint x="645" y="690" as="targetPoint" />
          </mxGeometry>
        </mxCell>
        <mxCell id="hNyJn2xI1DlJILf2yhCy-29" value="" style="endArrow=none;html=1;rounded=0;exitX=1;exitY=0.5;exitDx=0;exitDy=0;entryX=0;entryY=0.5;entryDx=0;entryDy=0;" edge="1" parent="1" source="hNyJn2xI1DlJILf2yhCy-4" target="hNyJn2xI1DlJILf2yhCy-6">
          <mxGeometry width="50" height="50" relative="1" as="geometry">
            <mxPoint x="545" y="500" as="sourcePoint" />
            <mxPoint x="645" y="690" as="targetPoint" />
          </mxGeometry>
        </mxCell>
        <mxCell id="hNyJn2xI1DlJILf2yhCy-30" value="" style="endArrow=none;html=1;rounded=0;exitX=1;exitY=0.5;exitDx=0;exitDy=0;entryX=0;entryY=0.5;entryDx=0;entryDy=0;" edge="1" parent="1" source="hNyJn2xI1DlJILf2yhCy-3" target="hNyJn2xI1DlJILf2yhCy-6">
          <mxGeometry width="50" height="50" relative="1" as="geometry">
            <mxPoint x="545" y="500" as="sourcePoint" />
            <mxPoint x="645" y="690" as="targetPoint" />
          </mxGeometry>
        </mxCell>
        <mxCell id="hNyJn2xI1DlJILf2yhCy-31" value="" style="endArrow=none;html=1;rounded=0;exitX=1;exitY=0.5;exitDx=0;exitDy=0;entryX=0;entryY=0.5;entryDx=0;entryDy=0;" edge="1" parent="1" source="hNyJn2xI1DlJILf2yhCy-2" target="hNyJn2xI1DlJILf2yhCy-6">
          <mxGeometry width="50" height="50" relative="1" as="geometry">
            <mxPoint x="545" y="500" as="sourcePoint" />
            <mxPoint x="645" y="690" as="targetPoint" />
          </mxGeometry>
        </mxCell>
        <mxCell id="hNyJn2xI1DlJILf2yhCy-32" value="API Gateway acts as the entry point for &lt;br&gt;client applications requests to suitable services." style="text;html=1;align=left;verticalAlign=middle;resizable=0;points=[];autosize=1;strokeColor=none;fillColor=none;" vertex="1" parent="1">
          <mxGeometry x="270" y="640" width="280" height="40" as="geometry" />
        </mxCell>
        <mxCell id="hNyJn2xI1DlJILf2yhCy-33" value="User Management service handles &lt;br&gt;user authentication ,authorization, and user profile management" style="text;html=1;align=left;verticalAlign=middle;resizable=0;points=[];autosize=1;strokeColor=none;fillColor=none;" vertex="1" parent="1">
          <mxGeometry x="270" y="700" width="360" height="40" as="geometry" />
        </mxCell>
        <mxCell id="hNyJn2xI1DlJILf2yhCy-34" value="Work Order Service handles &lt;br&gt;create, modifiy, and delete the work orders" style="text;html=1;align=left;verticalAlign=middle;resizable=0;points=[];autosize=1;strokeColor=none;fillColor=none;" vertex="1" parent="1">
          <mxGeometry x="270" y="760" width="250" height="40" as="geometry" />
        </mxCell>
        <mxCell id="hNyJn2xI1DlJILf2yhCy-35" value="&lt;div style=&quot;&quot;&gt;&lt;span style=&quot;background-color: initial;&quot;&gt;Property Management handles&amp;nbsp;&lt;/span&gt;&lt;/div&gt;responsible for specific property&amp;nbsp;operations such as predefined work orders for regular electricity maintenance." style="text;whiteSpace=wrap;html=1;align=left;" vertex="1" parent="1">
          <mxGeometry x="270" y="810" width="320" height="60" as="geometry" />
        </mxCell>
        <mxCell id="hNyJn2xI1DlJILf2yhCy-36" value="" style="rounded=1;whiteSpace=wrap;html=1;fillColor=none;dashed=1;" vertex="1" parent="1">
          <mxGeometry x="285" y="40" width="250" height="520" as="geometry" />
        </mxCell>
        <mxCell id="hNyJn2xI1DlJILf2yhCy-37" value="Raditional&lt;br&gt;Databases" style="rounded=1;whiteSpace=wrap;html=1;" vertex="1" parent="1">
          <mxGeometry x="595" y="140" width="120" height="60" as="geometry" />
        </mxCell>
        <mxCell id="hNyJn2xI1DlJILf2yhCy-38" value="Raditional&lt;br&gt;Databases" style="rounded=1;whiteSpace=wrap;html=1;" vertex="1" parent="1">
          <mxGeometry x="605" y="150" width="120" height="60" as="geometry" />
        </mxCell>
        <mxCell id="hNyJn2xI1DlJILf2yhCy-39" value="Transaction Service handles the record and process of work order transactions" style="text;whiteSpace=wrap;html=1;align=left;" vertex="1" parent="1">
          <mxGeometry x="270" y="880" width="250" height="40" as="geometry" />
        </mxCell>
        <mxCell id="hNyJn2xI1DlJILf2yhCy-40" value="ECS" style="text;html=1;align=center;verticalAlign=middle;resizable=0;points=[];autosize=1;strokeColor=none;fillColor=none;fontStyle=1;fontSize=14;" vertex="1" parent="1">
          <mxGeometry x="380" y="10" width="50" height="30" as="geometry" />
        </mxCell>
        <mxCell id="hNyJn2xI1DlJILf2yhCy-42" value="" style="rounded=1;whiteSpace=wrap;html=1;fillColor=none;dashed=1;" vertex="1" parent="1">
          <mxGeometry x="575" y="100" width="160" height="300" as="geometry" />
        </mxCell>
        <mxCell id="hNyJn2xI1DlJILf2yhCy-43" value="EC2" style="text;html=1;align=center;verticalAlign=middle;resizable=0;points=[];autosize=1;strokeColor=none;fillColor=none;fontStyle=1;fontSize=14;" vertex="1" parent="1">
          <mxGeometry x="630" y="70" width="50" height="30" as="geometry" />
        </mxCell>
        <mxCell id="hNyJn2xI1DlJILf2yhCy-55" style="edgeStyle=orthogonalEdgeStyle;rounded=0;orthogonalLoop=1;jettySize=auto;html=1;exitX=1;exitY=0.5;exitDx=0;exitDy=0;entryX=0;entryY=0.5;entryDx=0;entryDy=0;entryPerimeter=0;endArrow=none;endFill=0;" edge="1" parent="1" source="hNyJn2xI1DlJILf2yhCy-44" target="hNyJn2xI1DlJILf2yhCy-49">
          <mxGeometry relative="1" as="geometry" />
        </mxCell>
        <mxCell id="hNyJn2xI1DlJILf2yhCy-44" value="" style="rounded=1;whiteSpace=wrap;html=1;fillColor=none;dashed=1;" vertex="1" parent="1">
          <mxGeometry x="575" y="440" width="160" height="92" as="geometry" />
        </mxCell>
        <mxCell id="hNyJn2xI1DlJILf2yhCy-46" value="Elasticsearch Service" style="rounded=1;whiteSpace=wrap;html=1;" vertex="1" parent="1">
          <mxGeometry x="595" y="450" width="120" height="30" as="geometry" />
        </mxCell>
        <mxCell id="hNyJn2xI1DlJILf2yhCy-47" value="3rd Party" style="text;html=1;align=center;verticalAlign=middle;resizable=0;points=[];autosize=1;strokeColor=none;fillColor=none;fontStyle=1;fontSize=14;" vertex="1" parent="1">
          <mxGeometry x="615" y="410" width="80" height="30" as="geometry" />
        </mxCell>
        <mxCell id="hNyJn2xI1DlJILf2yhCy-48" value="Analytic Service" style="rounded=1;whiteSpace=wrap;html=1;" vertex="1" parent="1">
          <mxGeometry x="595" y="487" width="120" height="30" as="geometry" />
        </mxCell>
        <mxCell id="hNyJn2xI1DlJILf2yhCy-49" value="" style="strokeWidth=1;html=1;shape=mxgraph.flowchart.annotation_2;align=left;labelPosition=right;pointerEvents=1;rotation=-180;" vertex="1" parent="1">
          <mxGeometry x="740" y="170" width="25" height="190" as="geometry" />
        </mxCell>
      </root>
    </mxGraphModel>
  </diagram>
</mxfile>
